# File created by Blade
# Date/Time:  Thu Jan 22 16:36:26 2015
# Frame Rate: 120.000 fps
#------------------------------------------------------
:FULLY-SPECIFIED
:DEGREES
1991
root -0.118668 6.009672 -7.847129 -16.738514 -22.231715 36.163992
RightUpLeg -100.775999 0.430585 46.982417
RightLeg 145.140570 -0.000000 -0.000000
RightFoot -4.342392 18.372615 -90.818508
RightToeBase -309.283412 -0.000000 -0.000000
LeftUpLeg -15.411121 -20.919936 41.935954
LeftLeg 148.504476 -0.000000 -0.000000
LeftFoot 26.896108 9.724306 -14.351049
LeftToeBase 11.101749 -0.000000 -0.000000
Spine 37.098872 13.279624 -17.981094
RightShoulder 8.773532 -10.578255 -25.182279
RightArm 38.868856 -26.113099 58.352416
RightForeArm -42.753688 -0.000000 86.967777
RightHand -3.830460 0.000000 10.015045
RightHandThumb1 -24.326973 -0.000000 -32.862282
LeftShoulder -26.630351 34.582608 -1.573603
LeftArm 24.397635 2.130018 -70.532474
LeftForeArm 16.664087 -0.000000 47.439293
LeftHand -20.682409 -0.000000 -24.699509
LeftHandThumb1 -26.253704 0.000000 33.147579
Head -29.002908 7.533936 -21.285965
1992
root -0.126195 6.015918 -7.836380 -16.701933 -22.321583 36.255482
RightUpLeg -100.740034 0.528432 46.963529
RightLeg 145.144844 -0.000000 -0.000000
RightFoot -4.294289 18.434331 -90.806798
RightToeBase -309.157152 -0.000000 -0.000000
LeftUpLeg -15.402262 -21.228667 42.007792
LeftLeg 148.513825 -0.000000 -0.000000
LeftFoot 26.932049 9.624804 -14.164073
LeftToeBase 10.867143 -0.000000 -0.000000
Spine 37.047507 13.316980 -18.039376
RightShoulder 8.782339 -10.567104 -25.174023
RightArm 38.822199 -26.126246 58.471608
RightForeArm -42.834512 0.000000 86.990557
RightHand -3.817727 -0.000000 10.027364
RightHandThumb1 -24.326973 -0.000000 -32.862282
LeftShoulder -26.702655 34.706813 -1.496174
LeftArm 24.278551 2.299899 -70.331262
LeftForeArm 16.582087 0.000000 47.985830
LeftHand -20.999898 -0.000000 -25.044286
LeftHandThumb1 -26.253704 0.000000 33.147579
Head -29.043789 7.574702 -21.292053
1993
root -0.133794 6.021948 -7.825250 -16.662270 -22.440662 36.350792
RightUpLeg -100.686872 0.653618 46.947077
RightLeg 145.148157 -0.000000 -0.000000
RightFoot -4.233234 18.478408 -90.766831
RightToeBase -309.124629 -0.000000 -0.000000
LeftUpLeg -15.374948 -21.466136 42.060329
LeftLeg 148.510558 -0.000000 -0.000000
LeftFoot 27.002367 9.654904 -14.018645
LeftToeBase 10.847416 -0.000000 -0.000000
Spine 36.979382 13.370607 -18.090822
RightShoulder 8.787935 -10.539390 -25.211381
RightArm 38.815246 -26.180007 58.552646
RightForeArm -42.849308 0.000000 86.986645
RightHand -3.849225 -0.000000 9.964789
RightHandThumb1 -24.326973 -0.000000 -32.862282
LeftShoulder -26.748032 34.803407 -1.417578
LeftArm 24.122803 2.452516 -70.137701
LeftForeArm 16.314655 -0.000000 48.493823
LeftHand -21.271514 0.000000 -24.817243
LeftHandThumb1 -26.253704 0.000000 33.147579
Head -29.070506 7.555839 -21.259023
1994
root -0.138844 6.030273 -7.814328 -16.646177 -22.549310 36.468437
RightUpLeg -100.636471 0.758547 46.897022
RightLeg 145.158366 -0.000000 -0.000000
RightFoot -4.190905 18.536708 -90.715503
RightToeBase -309.029671 -0.000000 -0.000000
LeftUpLeg -15.322255 -21.783561 42.085981
LeftLeg 148.545061 -0.000000 -0.000000
LeftFoot 26.971989 9.453366 -14.003526
LeftToeBase 11.018602 -0.000000 -0.000000
Spine 36.938857 13.451357 -18.161767
RightShoulder 8.779813 -10.634053 -25.198630
RightArm 38.888377 -26.133813 58.579675
RightForeArm -42.895141 -0.000000 87.015854
RightHand -3.876198 0.000000 9.981099
RightHandThumb1 -24.326973 -0.000000 -32.862282
LeftShoulder -26.794583 34.898138 -1.322160
LeftArm 23.998698 2.626066 -69.953748
LeftForeArm 16.074307 0.000000 49.005939
LeftHand -21.488692 -0.000000 -24.942175
LeftHandThumb1 -26.253704 0.000000 33.147579
Head -29.109906 7.603529 -21.247550
